<?xml version="1.0" encoding="utf-8"?>
<!-- Generator: Adobe Illustrator 23.0.2, SVG Export Plug-In . SVG Version: 6.00 Build 0)  -->
<svg version="1.1" id="Camada_1" xmlns="http://www.w3.org/2000/svg" xmlns:xlink="http://www.w3.org/1999/xlink" x="0px" y="0px"
	 viewBox="0 0 14.3 14.3" style="enable-background:new 0 0 14.3 14.3;" xml:space="preserve">
<path d="M3,9.8h6v1.5H3V9.8z M3,7.5V9h6V7.5H6.8H3z M3,5.3h6v1.5H3V5.3z M12,0h-1.5v2.3H8.3c0,0,0,1.5,0,1.5h2.3V6c0,0,1.5,0,1.5,0
	V3.8h2.3V2.3H12V0z M10.5,12.9h-9V3.8h5.3V2.3H1.5C0.7,2.3,0,2.9,0,3.8v9c0,0.8,0.7,1.5,1.5,1.5h9c0.8,0,1.5-0.7,1.5-1.5V7.5h-1.5
	V12.9z"/>
</svg>
